<svg width="128" height="128" viewBox="0 0 128 128" fill="none" xmlns="http://www.w3.org/2000/svg">
<rect width="128" height="128" rx="64" fill="url(#paint0_linear)"/>
<path d="M90.2857 58.2857H70.8571C70.226 58.2857 69.7143 57.774 69.7143 57.1429V37.7143C69.7143 34.5586 67.1557 32 64 32C60.8443 32 58.2857 34.5586 58.2857 37.7143V57.1429C58.2857 57.774 57.774 58.2857 57.1429 58.2857H37.7143C34.5586 58.2857 32 60.8443 32 64C32 67.1557 34.5586 69.7143 37.7143 69.7143H57.1429C57.774 69.7143 58.2857 70.226 58.2857 70.8571V90.2857C58.2857 93.4414 60.8443 96 64 96C67.1557 96 69.7143 93.4414 69.7143 90.2857V70.8571C69.7143 70.226 70.226 69.7143 70.8571 69.7143H90.2857C93.4414 69.7143 96 67.1557 96 64C96 60.8443 93.4414 58.2857 90.2857 58.2857Z" fill="white"/>
<defs>
<linearGradient id="paint0_linear" x1="64" y1="0" x2="64" y2="128" gradientUnits="userSpaceOnUse">
<stop stop-color="#5663FF"/>
<stop offset="1" stop-color="#9098DF"/>
</linearGradient>
</defs>
</svg>
